<mxfile host="65bd71144e">
    <diagram id="i45nCr9p5Kfg4L8qLklC" name="Page-1">
        <mxGraphModel dx="688" dy="563" grid="1" gridSize="10" guides="1" tooltips="1" connect="1" arrows="1" fold="1" page="1" pageScale="1" pageWidth="850" pageHeight="1100" math="0" shadow="0">
            <root>
                <mxCell id="0"/>
                <mxCell id="1" parent="0"/>
                <mxCell id="3" value="" style="rounded=0;whiteSpace=wrap;html=1;fillColor=none;strokeWidth=1;" parent="1" vertex="1">
                    <mxGeometry x="40" y="40" width="600" height="320" as="geometry"/>
                </mxCell>
                <mxCell id="4" value="&lt;h1&gt;Pre-Processing&lt;/h1&gt;&lt;p&gt;&lt;br&gt;&lt;/p&gt;" style="text;html=1;strokeColor=none;fillColor=none;spacing=5;spacingTop=-20;whiteSpace=wrap;overflow=hidden;rounded=0;strokeWidth=3;" parent="1" vertex="1">
                    <mxGeometry x="247.5" y="60" width="185" height="40" as="geometry"/>
                </mxCell>
                <mxCell id="5" value="Data Cleaning" style="rounded=0;whiteSpace=wrap;html=1;strokeWidth=1;fillColor=none;" parent="1" vertex="1">
                    <mxGeometry x="80" y="120" width="120" height="60" as="geometry"/>
                </mxCell>
                <mxCell id="6" value="Case Folding" style="whiteSpace=wrap;html=1;fillColor=none;rounded=0;strokeWidth=1;" parent="1" vertex="1">
                    <mxGeometry x="280" y="120" width="120" height="60" as="geometry"/>
                </mxCell>
                <mxCell id="7" value="" style="edgeStyle=none;rounded=0;html=1;" parent="1" source="5" target="6" edge="1">
                    <mxGeometry relative="1" as="geometry"/>
                </mxCell>
                <mxCell id="8" value="Tokenization" style="whiteSpace=wrap;html=1;fillColor=none;rounded=0;strokeWidth=1;" parent="1" vertex="1">
                    <mxGeometry x="480" y="120" width="120" height="60" as="geometry"/>
                </mxCell>
                <mxCell id="9" value="" style="edgeStyle=none;rounded=0;html=1;" parent="1" source="6" target="8" edge="1">
                    <mxGeometry relative="1" as="geometry"/>
                </mxCell>
                <mxCell id="10" value="Normalization" style="whiteSpace=wrap;html=1;fillColor=none;rounded=0;strokeWidth=1;" parent="1" vertex="1">
                    <mxGeometry x="480" y="260" width="120" height="60" as="geometry"/>
                </mxCell>
                <mxCell id="11" value="" style="edgeStyle=none;rounded=0;html=1;" parent="1" source="8" target="10" edge="1">
                    <mxGeometry relative="1" as="geometry"/>
                </mxCell>
                <mxCell id="12" value="Stopwords Removal" style="whiteSpace=wrap;html=1;fillColor=none;rounded=0;strokeWidth=1;" parent="1" vertex="1">
                    <mxGeometry x="280" y="260" width="120" height="60" as="geometry"/>
                </mxCell>
                <mxCell id="13" value="" style="edgeStyle=none;rounded=0;html=1;" parent="1" source="10" target="12" edge="1">
                    <mxGeometry relative="1" as="geometry"/>
                </mxCell>
                <mxCell id="14" value="Stemming" style="whiteSpace=wrap;html=1;fillColor=none;rounded=0;strokeWidth=1;" parent="1" vertex="1">
                    <mxGeometry x="80" y="260" width="120" height="60" as="geometry"/>
                </mxCell>
                <mxCell id="15" value="" style="edgeStyle=none;rounded=0;html=1;" parent="1" source="12" target="14" edge="1">
                    <mxGeometry relative="1" as="geometry"/>
                </mxCell>
            </root>
        </mxGraphModel>
    </diagram>
</mxfile>